<svg width="300" height="60" viewBox="0 0 300 60" fill="none" xmlns="http://www.w3.org/2000/svg">
<path d="M104.145 9.34568H100.613C100.513 8.76651 100.327 8.25344 100.056 7.80647C99.7854 7.3532 99.4486 6.96919 99.0457 6.65442C98.6428 6.33965 98.1833 6.10358 97.667 5.94619C97.1571 5.78252 96.6063 5.70068 96.0145 5.70068C94.9632 5.70068 94.0315 5.96508 93.2194 6.49389C92.4073 7.0164 91.7715 7.78443 91.3119 8.79798C90.8523 9.80524 90.6226 11.036 90.6226 12.4902C90.6226 13.9696 90.8523 15.2161 91.3119 16.2296C91.7777 17.2369 92.4136 17.9986 93.2194 18.5148C94.0315 19.0248 94.96 19.2797 96.0051 19.2797C96.5842 19.2797 97.1256 19.2042 97.6293 19.0531C98.1392 18.8957 98.5956 18.6659 98.9985 18.3638C99.4077 18.0616 99.7508 17.6902 100.028 17.2495C100.311 16.8088 100.506 16.3052 100.613 15.7386L104.145 15.7575C104.013 16.6766 103.726 17.5391 103.286 18.3449C102.851 19.1507 102.282 19.862 101.576 20.479C100.871 21.0896 100.047 21.5681 99.1024 21.9143C98.1581 22.2543 97.1099 22.4242 95.9579 22.4242C94.2581 22.4242 92.7409 22.0308 91.4063 21.2439C90.0717 20.457 89.0204 19.3206 88.2524 17.8349C87.4843 16.3492 87.1003 14.5677 87.1003 12.4902C87.1003 10.4064 87.4875 8.62486 88.2618 7.14546C89.0361 5.65976 90.0906 4.52345 91.4252 3.73653C92.7598 2.94961 94.2707 2.55615 95.9579 2.55615C97.0344 2.55615 98.0353 2.70724 98.9607 3.00942C99.8861 3.31159 100.711 3.75542 101.435 4.34088C102.159 4.92005 102.754 5.63143 103.22 6.475C103.692 7.31228 104 8.26918 104.145 9.34568Z" fill="black"/>
<path d="M106.409 10.46V7.65538H119.1V10.46H114.407V22.1598H111.102V10.46H106.409Z" fill="black"/>
<path d="M123.947 27.599C123.481 27.599 123.05 27.5612 122.653 27.4857C122.263 27.4165 121.951 27.3346 121.718 27.2402L122.512 24.5773C123.009 24.722 123.453 24.7913 123.843 24.785C124.233 24.7787 124.576 24.6559 124.872 24.4167C125.175 24.1838 125.429 23.7935 125.637 23.2458L125.93 22.462L120.67 7.65538H124.296L127.639 18.6093H127.79L131.143 7.65538H134.778L128.971 23.9162C128.7 24.6843 128.341 25.3421 127.894 25.8898C127.447 26.4438 126.899 26.8656 126.251 27.1552C125.609 27.4511 124.841 27.599 123.947 27.599Z" fill="black"/>
<path d="M134.665 26.3714V19.3458H135.817C136.125 19.1066 136.383 18.7824 136.591 18.3732C136.799 17.9577 136.969 17.4698 137.101 16.9095C137.24 16.3429 137.353 15.7103 137.441 15.0115C137.529 14.3064 137.608 13.5478 137.677 12.7357L138.093 7.65538H148.574V19.3458H150.822V26.3714H147.517V22.1598H138.026V26.3714H134.665ZM139.33 19.3458H145.307V10.4127H141.058L140.831 12.7357C140.705 14.2718 140.538 15.5875 140.331 16.6829C140.123 17.7783 139.789 18.6659 139.33 19.3458Z" fill="black"/>
<path d="M159.795 22.4431C158.341 22.4431 157.085 22.141 156.027 21.5366C154.976 20.926 154.167 20.0635 153.6 18.9492C153.034 17.8286 152.75 16.5098 152.75 14.9926C152.75 13.5006 153.034 12.1912 153.6 11.0643C154.173 9.93114 154.973 9.0498 155.999 8.42026C157.025 7.78443 158.231 7.46652 159.616 7.46652C160.509 7.46652 161.353 7.61131 162.146 7.9009C162.946 8.18419 163.651 8.62486 164.262 9.22292C164.878 9.82098 165.363 10.5827 165.716 11.5081C166.068 12.4272 166.245 13.5226 166.245 14.7943V15.8425H154.356V13.5384H162.968C162.962 12.8837 162.82 12.3013 162.543 11.7914C162.266 11.2752 161.879 10.8692 161.381 10.5733C160.89 10.2774 160.317 10.1294 159.663 10.1294C158.964 10.1294 158.35 10.2994 157.821 10.6394C157.293 10.973 156.88 11.4137 156.584 11.9614C156.295 12.5028 156.147 13.0977 156.141 13.7461V15.7575C156.141 16.6011 156.295 17.325 156.603 17.9294C156.912 18.5274 157.343 18.987 157.897 19.3081C158.451 19.6228 159.099 19.7802 159.842 19.7802C160.34 19.7802 160.79 19.711 161.193 19.5725C161.595 19.4277 161.945 19.2168 162.241 18.9398C162.537 18.6628 162.76 18.3197 162.911 17.9105L166.103 18.2693C165.901 19.1129 165.517 19.8495 164.951 20.479C164.391 21.1022 163.673 21.587 162.798 21.9332C161.923 22.2732 160.922 22.4431 159.795 22.4431Z" fill="black"/>
<path d="M179.099 13.4912V16.2957H171.374V13.4912H179.099ZM172.432 7.65538V22.1598H169.136V7.65538H172.432ZM181.337 7.65538V22.1598H178.051V7.65538H181.337Z" fill="black"/>
<path d="M196.911 7.65538V22.1598H193.625V7.65538H196.911ZM195.372 14.2088V17.004C195 17.1676 194.578 17.3156 194.106 17.4478C193.64 17.5737 193.146 17.6744 192.624 17.75C192.107 17.8255 191.591 17.8633 191.075 17.8633C189.136 17.8633 187.603 17.4289 186.476 16.5601C185.356 15.6851 184.795 14.3221 184.795 12.4713V7.63649H188.063V12.4713C188.063 13.0946 188.173 13.595 188.393 13.9728C188.613 14.3505 188.947 14.6275 189.394 14.8037C189.841 14.9737 190.401 15.0587 191.075 15.0587C191.83 15.0587 192.548 14.9832 193.228 14.8321C193.908 14.681 194.622 14.4732 195.372 14.2088Z" fill="black"/>
<path d="M206.772 22.4431C205.317 22.4431 204.061 22.141 203.004 21.5366C201.952 20.926 201.144 20.0635 200.577 18.9492C200.01 17.8286 199.727 16.5098 199.727 14.9926C199.727 13.5006 200.01 12.1912 200.577 11.0643C201.15 9.93114 201.949 9.0498 202.976 8.42026C204.002 7.78443 205.207 7.46652 206.592 7.46652C207.486 7.46652 208.33 7.61131 209.123 7.9009C209.922 8.18419 210.627 8.62486 211.238 9.22292C211.855 9.82098 212.34 10.5827 212.692 11.5081C213.045 12.4272 213.221 13.5226 213.221 14.7943V15.8425H201.332V13.5384H209.944C209.938 12.8837 209.797 12.3013 209.52 11.7914C209.243 11.2752 208.855 10.8692 208.358 10.5733C207.867 10.2774 207.294 10.1294 206.639 10.1294C205.941 10.1294 205.327 10.2994 204.798 10.6394C204.269 10.973 203.857 11.4137 203.561 11.9614C203.271 12.5028 203.123 13.0977 203.117 13.7461V15.7575C203.117 16.6011 203.271 17.325 203.58 17.9294C203.888 18.5274 204.32 18.987 204.874 19.3081C205.428 19.6228 206.076 19.7802 206.819 19.7802C207.316 19.7802 207.766 19.711 208.169 19.5725C208.572 19.4277 208.921 19.2168 209.217 18.9398C209.513 18.6628 209.737 18.3197 209.888 17.9105L213.08 18.2693C212.878 19.1129 212.494 19.8495 211.927 20.479C211.367 21.1022 210.65 21.587 209.774 21.9332C208.899 22.2732 207.898 22.4431 206.772 22.4431Z" fill="black"/>
<path d="M222.44 22.4431C220.992 22.4431 219.749 22.1252 218.71 21.4894C217.677 20.8536 216.881 19.9754 216.321 18.8548C215.767 17.7279 215.49 16.4311 215.49 14.9643C215.49 13.4912 215.773 12.1912 216.34 11.0643C216.906 9.93114 217.706 9.0498 218.738 8.42026C219.777 7.78443 221.005 7.46652 222.421 7.46652C223.598 7.46652 224.64 7.68371 225.547 8.11809C226.459 8.54617 227.187 9.15367 227.728 9.94059C228.269 10.7212 228.578 11.634 228.653 12.6791H225.386C225.254 11.9803 224.939 11.398 224.442 10.9321C223.951 10.46 223.293 10.2239 222.468 10.2239C221.769 10.2239 221.156 10.4127 220.627 10.7905C220.098 11.1619 219.686 11.697 219.39 12.3958C219.1 13.0946 218.955 13.9318 218.955 14.9076C218.955 15.896 219.1 16.7459 219.39 17.4572C219.679 18.1623 220.085 18.7069 220.608 19.0909C221.137 19.4686 221.757 19.6574 222.468 19.6574C222.972 19.6574 223.422 19.563 223.819 19.3742C224.221 19.179 224.558 18.8989 224.829 18.5337C225.1 18.1686 225.285 17.7248 225.386 17.2023H228.653C228.572 18.2284 228.269 19.1381 227.747 19.9313C227.224 20.7182 226.513 21.3352 225.613 21.7821C224.713 22.2228 223.655 22.4431 222.44 22.4431Z" fill="black"/>
<path d="M231.46 22.1598V7.65538H234.879V13.51H236.125L240.488 7.65538H244.605L239.232 14.7754L244.662 22.1598H240.526L236.55 16.6923H234.879V22.1598H231.46Z" fill="black"/>
<path d="M249.895 17.5328L255.703 7.65538H259.216V22.1598H255.911V12.273L250.122 22.1598H246.6V7.65538H249.895V17.5328Z" fill="black"/>
<path d="M266.022 17.5328L271.829 7.65538H275.342V22.1598H272.037V12.273L266.248 22.1598H262.726V7.65538H266.022V17.5328ZM270.894 2.66947H273.453C273.453 3.77115 273.054 4.66509 272.254 5.35128C271.461 6.03118 270.384 6.37113 269.025 6.37113C267.677 6.37113 266.604 6.03118 265.805 5.35128C265.011 4.66509 264.618 3.77115 264.624 2.66947H267.164C267.164 3.12273 267.303 3.52878 267.58 3.88762C267.863 4.24016 268.345 4.41643 269.025 4.41643C269.692 4.41643 270.167 4.24016 270.451 3.88762C270.74 3.53508 270.888 3.12903 270.894 2.66947Z" fill="black"/>
<path d="M94.022 59.5898V35.3213H97.4498V59.5898H94.022ZM94.022 54.9439C92.9581 54.9439 91.9855 54.7645 91.1041 54.4056C90.2228 54.0468 89.4611 53.5369 88.8189 52.8759C88.1831 52.2149 87.6889 51.4279 87.3364 50.5151C86.9901 49.596 86.817 48.5793 86.817 47.465C86.817 46.3507 86.9901 45.334 87.3364 44.4149C87.6889 43.4958 88.1831 42.7057 88.8189 42.0447C89.4611 41.3774 90.2228 40.8643 91.1041 40.5055C91.9855 40.1467 92.9581 39.9673 94.022 39.9673H94.7491V54.9439H94.022ZM94.022 52.1865H94.447V42.7246H94.022C93.4177 42.7246 92.8826 42.8505 92.4167 43.1023C91.9572 43.3479 91.57 43.691 91.2552 44.1316C90.9468 44.566 90.7107 45.0696 90.547 45.6425C90.3896 46.2091 90.3109 46.8166 90.3109 47.465C90.3109 48.3275 90.4526 49.1175 90.7359 49.8352C91.0192 50.5466 91.4346 51.1163 91.9823 51.5444C92.5363 51.9725 93.2162 52.1865 94.022 52.1865ZM97.4498 54.9439H96.7227V39.9673H97.4498C98.5138 39.9673 99.4864 40.1467 100.368 40.5055C101.249 40.8643 102.008 41.3774 102.644 42.0447C103.286 42.7057 103.78 43.4958 104.126 44.4149C104.479 45.334 104.655 46.3507 104.655 47.465C104.655 48.5793 104.479 49.596 104.126 50.5151C103.78 51.4279 103.286 52.2149 102.644 52.8759C102.008 53.5369 101.249 54.0468 100.368 54.4056C99.4864 54.7645 98.5138 54.9439 97.4498 54.9439ZM97.4498 52.1865C98.0605 52.1865 98.5956 52.0638 99.0552 51.8182C99.5147 51.5727 99.8987 51.2328 100.207 50.7984C100.522 50.364 100.758 49.8635 100.915 49.297C101.073 48.7241 101.152 48.1134 101.152 47.465C101.152 46.6026 101.013 45.8125 100.736 45.0948C100.459 44.3771 100.044 43.8043 99.4895 43.3762C98.9418 42.9418 98.2619 42.7246 97.4498 42.7246H97.0249V52.1865H97.4498Z" fill="black"/>
<path d="M111.714 54.9533C110.794 54.9533 109.967 54.7896 109.23 54.4623C108.5 54.1286 107.921 53.6376 107.492 52.9892C107.071 52.3408 106.86 51.5412 106.86 50.5907C106.86 49.7723 107.011 49.0955 107.313 48.5604C107.615 48.0253 108.028 47.5972 108.55 47.2761C109.073 46.9551 109.661 46.7127 110.316 46.549C110.977 46.3791 111.66 46.2563 112.365 46.1808C113.215 46.0926 113.904 46.0139 114.433 45.9447C114.962 45.8691 115.346 45.7558 115.585 45.6047C115.831 45.4474 115.953 45.205 115.953 44.8776V44.821C115.953 44.1096 115.743 43.5588 115.321 43.1684C114.899 42.7781 114.291 42.583 113.498 42.583C112.661 42.583 111.997 42.7655 111.506 43.1307C111.021 43.4958 110.694 43.927 110.524 44.4244L107.332 43.9711C107.584 43.0898 107.999 42.3532 108.578 41.7614C109.158 41.1634 109.866 40.7164 110.703 40.4205C111.54 40.1184 112.466 39.9673 113.479 39.9673C114.178 39.9673 114.874 40.0491 115.566 40.2128C116.259 40.3765 116.891 40.6472 117.464 41.0249C118.037 41.3963 118.497 41.9031 118.843 42.5452C119.196 43.1873 119.372 43.99 119.372 44.9532V54.6606H116.086V52.6681H115.972C115.765 53.071 115.472 53.4487 115.094 53.8013C114.723 54.1475 114.254 54.4277 113.687 54.6417C113.127 54.8494 112.469 54.9533 111.714 54.9533ZM112.601 52.4415C113.287 52.4415 113.882 52.3061 114.386 52.0354C114.89 51.7584 115.277 51.3933 115.547 50.94C115.824 50.4868 115.963 49.9926 115.963 49.4575V47.7483C115.856 47.8364 115.673 47.9183 115.415 47.9938C115.163 48.0694 114.88 48.1355 114.565 48.1921C114.251 48.2488 113.939 48.2991 113.63 48.3432C113.322 48.3873 113.054 48.4251 112.828 48.4565C112.318 48.5258 111.861 48.6391 111.459 48.7965C111.056 48.9539 110.738 49.1742 110.505 49.4575C110.272 49.7345 110.155 50.0933 110.155 50.534C110.155 51.1635 110.385 51.6388 110.845 51.9599C111.304 52.2809 111.89 52.4415 112.601 52.4415Z" fill="black"/>
<path d="M126.105 50.0335L131.912 40.1561H135.425V54.6606H132.12V44.7738L126.331 54.6606H122.809V40.1561H126.105V50.0335ZM130.977 35.1702H133.536C133.536 36.2719 133.137 37.1658 132.337 37.852C131.544 38.5319 130.467 38.8719 129.108 38.8719C127.76 38.8719 126.687 38.5319 125.887 37.852C125.094 37.1658 124.701 36.2719 124.707 35.1702H127.247C127.247 35.6235 127.386 36.0295 127.663 36.3884C127.946 36.7409 128.428 36.9172 129.108 36.9172C129.775 36.9172 130.25 36.7409 130.533 36.3884C130.823 36.0358 130.971 35.6298 130.977 35.1702Z" fill="black"/>
<path d="M137.934 54.6606L137.916 51.8466H138.416C138.794 51.8466 139.112 51.7616 139.37 51.5916C139.628 51.4216 139.842 51.1383 140.012 50.7417C140.182 50.3388 140.314 49.7974 140.408 49.1175C140.503 48.4376 140.569 47.5909 140.607 46.5774L140.862 40.1561H151.438V54.6606H148.133V42.9607H143.968L143.742 47.635C143.685 48.8437 143.55 49.8919 143.336 50.7795C143.128 51.6609 142.832 52.388 142.448 52.9608C142.07 53.5337 141.595 53.9618 141.022 54.2451C140.449 54.5221 139.773 54.6606 138.992 54.6606H137.934Z" fill="black"/>
<path d="M161.207 54.9439C159.79 54.9439 158.563 54.6323 157.524 54.009C156.485 53.3858 155.679 52.5139 155.107 51.3933C154.54 50.2727 154.257 48.9633 154.257 47.465C154.257 45.9667 154.54 44.6541 155.107 43.5273C155.679 42.4004 156.485 41.5254 157.524 40.9021C158.563 40.2789 159.79 39.9673 161.207 39.9673C162.623 39.9673 163.851 40.2789 164.889 40.9021C165.928 41.5254 166.731 42.4004 167.297 43.5273C167.87 44.6541 168.157 45.9667 168.157 47.465C168.157 48.9633 167.87 50.2727 167.297 51.3933C166.731 52.5139 165.928 53.3858 164.889 54.009C163.851 54.6323 162.623 54.9439 161.207 54.9439ZM161.226 52.2054C161.994 52.2054 162.636 51.9945 163.152 51.5727C163.668 51.1446 164.052 50.5718 164.304 49.8541C164.562 49.1364 164.691 48.3369 164.691 47.4556C164.691 46.5679 164.562 45.7653 164.304 45.0476C164.052 44.3236 163.668 43.7476 163.152 43.3195C162.636 42.8914 161.994 42.6774 161.226 42.6774C160.439 42.6774 159.784 42.8914 159.261 43.3195C158.745 43.7476 158.358 44.3236 158.1 45.0476C157.848 45.7653 157.722 46.5679 157.722 47.4556C157.722 48.3369 157.848 49.1364 158.1 49.8541C158.358 50.5718 158.745 51.1446 159.261 51.5727C159.784 51.9945 160.439 52.2054 161.226 52.2054Z" fill="black"/>
<path d="M177.385 54.9439C175.968 54.9439 174.741 54.6323 173.702 54.009C172.663 53.3858 171.858 52.5139 171.285 51.3933C170.718 50.2727 170.435 48.9633 170.435 47.465C170.435 45.9667 170.718 44.6541 171.285 43.5273C171.858 42.4004 172.663 41.5254 173.702 40.9021C174.741 40.2789 175.968 39.9673 177.385 39.9673C178.801 39.9673 180.029 40.2789 181.068 40.9021C182.106 41.5254 182.909 42.4004 183.476 43.5273C184.049 44.6541 184.335 45.9667 184.335 47.465C184.335 48.9633 184.049 50.2727 183.476 51.3933C182.909 52.5139 182.106 53.3858 181.068 54.009C180.029 54.6323 178.801 54.9439 177.385 54.9439ZM177.404 52.2054C178.172 52.2054 178.814 51.9945 179.33 51.5727C179.846 51.1446 180.23 50.5718 180.482 49.8541C180.74 49.1364 180.869 48.3369 180.869 47.4556C180.869 46.5679 180.74 45.7653 180.482 45.0476C180.23 44.3236 179.846 43.7476 179.33 43.3195C178.814 42.8914 178.172 42.6774 177.404 42.6774C176.617 42.6774 175.962 42.8914 175.44 43.3195C174.923 43.7476 174.536 44.3236 174.278 45.0476C174.026 45.7653 173.9 46.5679 173.9 47.4556C173.9 48.3369 174.026 49.1364 174.278 49.8541C174.536 50.5718 174.923 51.1446 175.44 51.5727C175.962 51.9945 176.617 52.2054 177.404 52.2054Z" fill="black"/>
<path d="M198.861 34.7925L200.051 37.0022C199.629 37.3673 199.157 37.6317 198.634 37.7954C198.112 37.959 197.498 38.0661 196.793 38.1164C196.094 38.1605 195.263 38.192 194.3 38.2109C193.217 38.236 192.332 38.4406 191.646 38.8247C190.96 39.2087 190.434 39.791 190.069 40.5716C189.704 41.3459 189.465 42.3343 189.352 43.5367H189.512C189.965 42.6491 190.601 41.9723 191.42 41.5065C192.238 41.0406 193.198 40.8077 194.3 40.8077C195.502 40.8077 196.563 41.0784 197.482 41.6198C198.407 42.1549 199.128 42.9324 199.644 43.9522C200.167 44.9721 200.428 46.2059 200.428 47.6539C200.428 49.1459 200.148 50.4396 199.588 51.535C199.028 52.624 198.231 53.4645 197.199 54.0562C196.173 54.648 194.954 54.9439 193.544 54.9439C192.14 54.9439 190.919 54.6386 189.88 54.0279C188.848 53.411 188.048 52.5013 187.482 51.2989C186.922 50.0902 186.641 48.6013 186.641 46.8323V45.5292C186.641 42.1171 187.277 39.5707 188.549 37.8898C189.821 36.2089 191.706 35.3528 194.205 35.3213C194.948 35.3087 195.612 35.3056 196.198 35.3119C196.79 35.3182 197.306 35.2898 197.746 35.2269C198.187 35.1639 198.559 35.0191 198.861 34.7925ZM193.563 52.2054C194.262 52.2054 194.866 52.026 195.376 51.6672C195.886 51.302 196.276 50.7858 196.547 50.1185C196.824 49.4512 196.963 48.6611 196.963 47.7483C196.963 46.8481 196.824 46.0832 196.547 45.4536C196.27 44.8178 195.877 44.3331 195.367 43.9994C194.857 43.6658 194.249 43.499 193.544 43.499C193.015 43.499 192.54 43.5934 192.118 43.7822C191.697 43.9711 191.338 44.2481 191.042 44.6132C190.746 44.9784 190.519 45.4222 190.362 45.9447C190.205 46.4672 190.12 47.0684 190.107 47.7483C190.107 49.1144 190.416 50.2003 191.032 51.0061C191.649 51.8057 192.493 52.2054 193.563 52.2054Z" fill="black"/>
<path d="M211.684 50.6851L215.99 40.1561H218.748L212.884 54.6606H210.494L204.763 40.1561H207.492L211.684 50.6851ZM206.632 40.1561V54.6606H203.337V40.1561H206.632ZM216.878 54.6606V40.1561H220.145V54.6606H216.878Z" fill="black"/>
<path d="M230.013 54.9439C228.559 54.9439 227.303 54.6417 226.245 54.0373C225.194 53.4267 224.385 52.5642 223.819 51.45C223.252 50.3294 222.969 49.0105 222.969 47.4933C222.969 46.0013 223.252 44.6919 223.819 43.565C224.391 42.4319 225.191 41.5505 226.217 40.921C227.243 40.2852 228.449 39.9673 229.834 39.9673C230.728 39.9673 231.571 40.1121 232.365 40.4016C233.164 40.6849 233.869 41.1256 234.48 41.7237C235.097 42.3217 235.581 43.0835 235.934 44.0089C236.287 44.928 236.463 46.0234 236.463 47.295V48.3432H224.574V46.0391H233.186C233.18 45.3844 233.038 44.8021 232.761 44.2922C232.484 43.7759 232.097 43.3699 231.6 43.074C231.109 42.7781 230.536 42.6302 229.881 42.6302C229.182 42.6302 228.568 42.8002 228.04 43.1401C227.511 43.4738 227.098 43.9144 226.803 44.4621C226.513 45.0035 226.365 45.5984 226.359 46.2469V48.2582C226.359 49.1018 226.513 49.8258 226.821 50.4301C227.13 51.0282 227.561 51.4877 228.115 51.8088C228.669 52.1236 229.318 52.281 230.06 52.281C230.558 52.281 231.008 52.2117 231.411 52.0732C231.814 51.9284 232.163 51.7175 232.459 51.4405C232.755 51.1635 232.978 50.8204 233.129 50.4112L236.321 50.7701C236.12 51.6136 235.736 52.3502 235.169 52.9797C234.609 53.603 233.891 54.0877 233.016 54.434C232.141 54.7739 231.14 54.9439 230.013 54.9439Z" fill="black"/>
<path d="M249.317 45.9919V48.7965H241.593V45.9919H249.317ZM242.65 40.1561V54.6606H239.355V40.1561H242.65ZM251.555 40.1561V54.6606H248.269V40.1561H251.555Z" fill="black"/>
<path d="M264.976 45.9919V48.7965H257.252V45.9919H264.976ZM258.309 40.1561V54.6606H255.014V40.1561H258.309ZM267.214 40.1561V54.6606H263.928V40.1561H267.214Z" fill="black"/>
<path d="M273.968 50.0335L279.775 40.1561H283.288V54.6606H279.983V44.7738L274.195 54.6606H270.672V40.1561H273.968V50.0335Z" fill="black"/>
<path d="M286.799 54.6606V40.1561H290.217V46.0108H291.464L295.826 40.1561H299.943L294.57 47.2761L300 54.6606H295.864L291.889 49.1931H290.217V54.6606H286.799Z" fill="black"/>
<path fill-rule="evenodd" clip-rule="evenodd" d="M26.5915 20.6822H17.7277C13.3822 20.6822 10.7175 20.6947 8.78903 20.954C7.09399 21.1819 6.81096 21.506 6.77739 21.5445C6.77614 21.5459 6.77523 21.5469 6.77461 21.5476C6.77399 21.5482 6.77296 21.5491 6.77152 21.5503C6.73307 21.5839 6.40894 21.8669 6.18105 23.562C5.92178 25.4904 5.90923 28.1551 5.90923 32.5006V41.3645C5.90923 45.71 5.92178 48.3746 6.18105 50.3031C6.40895 51.9982 6.73308 52.2812 6.77152 52.3148C6.77296 52.316 6.77399 52.3169 6.77461 52.3175C6.77523 52.3181 6.77614 52.3192 6.77739 52.3206C6.81096 52.3591 7.09398 52.6832 8.78903 52.9111C10.7175 53.1704 13.3822 53.1829 17.7277 53.1829H26.5915C30.937 53.1829 33.6017 53.1704 35.5302 52.9111C37.2252 52.6832 37.5082 52.3591 37.5418 52.3206C37.5431 52.3192 37.544 52.3181 37.5446 52.3175C37.5452 52.3169 37.5462 52.316 37.5477 52.3148C37.5861 52.2812 37.9103 51.9982 38.1381 50.3031C38.3974 48.3746 38.41 45.71 38.41 41.3645V32.5006C38.41 28.1551 38.3974 25.4904 38.1381 23.562C37.9103 21.8669 37.5861 21.5839 37.5477 21.5503C37.5462 21.5491 37.5452 21.5482 37.5446 21.5476C37.544 21.5469 37.5431 21.5459 37.5418 21.5445C37.5082 21.506 37.2252 21.1819 35.5302 20.954C33.6017 20.6947 30.937 20.6822 26.5915 20.6822ZM2.59616 17.3691C0 19.9653 0 24.1437 0 32.5006V41.3645C0 49.7214 0 53.8998 2.59616 56.496C5.19232 59.0921 9.37077 59.0921 17.7277 59.0921H26.5915C34.9484 59.0921 39.1269 59.0921 41.723 56.496C44.3192 53.8998 44.3192 49.7214 44.3192 41.3645V32.5006C44.3192 24.1437 44.3192 19.9653 41.723 17.3691C39.1269 14.7729 34.9484 14.7729 26.5915 14.7729H17.7277C9.37077 14.7729 5.19232 14.7729 2.59616 17.3691Z" fill="#A6C81E"/>
<path fill-rule="evenodd" clip-rule="evenodd" d="M41.3646 5.90923H32.5008C28.1552 5.90923 25.4906 5.92178 23.5621 6.18105C21.8671 6.40894 21.584 6.73307 21.5505 6.77152C21.5492 6.77296 21.5483 6.77399 21.5477 6.77461C21.5471 6.77523 21.546 6.77614 21.5446 6.77739C21.5061 6.81096 21.182 7.09399 20.9541 8.78903C20.6948 10.7175 20.6823 13.3822 20.6823 17.7277V26.5915C20.6823 30.937 20.6948 33.6017 20.9541 35.5302C21.182 37.2252 21.5062 37.5082 21.5446 37.5418C21.546 37.5431 21.5471 37.544 21.5477 37.5446C21.5483 37.5452 21.5492 37.5462 21.5505 37.5477C21.584 37.5861 21.8671 37.9103 23.5621 38.1381C25.4906 38.3974 28.1552 38.41 32.5007 38.41H41.3646C45.7101 38.41 48.3748 38.3974 50.3032 38.1381C51.9983 37.9103 52.2813 37.5861 52.3149 37.5477C52.3161 37.5462 52.317 37.5452 52.3177 37.5446C52.3183 37.544 52.3193 37.5431 52.3208 37.5418C52.3592 37.5082 52.6833 37.2252 52.9112 35.5302C53.1705 33.6017 53.183 30.937 53.183 26.5915V17.7277C53.183 13.3822 53.1705 10.7175 52.9112 8.78903C52.6833 7.09398 52.3592 6.81096 52.3208 6.77739C52.3193 6.77614 52.3183 6.77523 52.3177 6.77461C52.317 6.77399 52.3161 6.77295 52.3149 6.77152C52.2813 6.73307 51.9983 6.40894 50.3032 6.18105C48.3748 5.92178 45.7101 5.90923 41.3646 5.90923ZM17.3692 2.59616C14.7731 5.19232 14.7731 9.37077 14.7731 17.7277V26.5915C14.7731 34.9484 14.7731 39.1269 17.3692 41.723C19.9654 44.3192 24.1438 44.3192 32.5007 44.3192H41.3646C49.7215 44.3192 53.9 44.3192 56.4961 41.723C59.0923 39.1269 59.0923 34.9484 59.0923 26.5915V17.7277C59.0923 9.37077 59.0923 5.19232 56.4961 2.59616C53.9 0 49.7215 0 41.3646 0H32.5008C24.1438 0 19.9654 0 17.3692 2.59616Z" fill="#A6C81E"/>
</svg>
